<svg xmlns="http://www.w3.org/2000/svg" viewBox="0 0 768 768" role="img" aria-labelledby="title desc"><title id="title">ProQTrack</title><desc id="desc">Logo ProQTrack dengan latar hitam, bidang gradasi merah-oranye, dan huruf Q putih.</desc><defs><linearGradient id="brand" x1="0" y1="1" x2="1" y2="0"><stop offset="0" stop-color="#ff3131"/><stop offset="1" stop-color="#ff914d"/></linearGradient><clipPath id="app"><rect width="768" height="768" rx="75"/></clipPath></defs><g clip-path="url(#app)"><rect width="768" height="768" fill="#000"/><rect x="126" y="97" width="516" height="574" rx="52" fill="url(#brand)" transform="rotate(30 384 384)"/><path fill="#fff" d="M464 113c-111 0-190 85-190 239 0 160 79 250 190 250 37 0 71-9 100-27l56 56 60-63-55-52c20-39 30-89 30-150 0-154-79-253-191-253Zm0 98c58 0 92 51 92 154 0 34-4 62-12 84l-58-57-63 64 57 55c-6 1-11 2-17 2-58 0-91-52-91-160 0-96 34-142 92-142Z"/></g></svg>